<svg xmlns="http://www.w3.org/2000/svg" viewBox="0 0 1600 560" role="img" aria-labelledby="title desc" preserveAspectRatio="xMidYMid slice">
  <title id="title">Ilustração da Trilha do Dia</title>
  <desc id="desc">Mesa de estudo estilizada com notebook, checklist, fones e blocos de tempo em azul marinho, creme e dourado.</desc>
  <defs>
    <linearGradient id="bg" x1="0" y1="0" x2="1" y2="1"><stop stop-color="#05243f"/><stop offset=".55" stop-color="#0a4160"/><stop offset="1" stop-color="#0c2748"/></linearGradient>
    <radialGradient id="glow" cx="76%" cy="40%" r="46%"><stop stop-color="#8ed8c2" stop-opacity=".28"/><stop offset="1" stop-color="#8ed8c2" stop-opacity="0"/></radialGradient>
    <linearGradient id="gold" x1="0" y1="0" x2="1" y2="1"><stop stop-color="#f3dda5"/><stop offset="1" stop-color="#caa65a"/></linearGradient>
    <filter id="shadow" x="-35%" y="-35%" width="170%" height="170%"><feDropShadow dx="0" dy="20" stdDeviation="20" flood-color="#02111f" flood-opacity=".38"/></filter>
    <pattern id="grid" width="44" height="44" patternUnits="userSpaceOnUse"><path d="M44 0H0V44" fill="none" stroke="#fff" stroke-opacity=".045"/></pattern>
  </defs>
  <rect width="1600" height="560" fill="url(#bg)"/>
  <rect width="1600" height="560" fill="url(#grid)"/>
  <rect width="1600" height="560" fill="url(#glow)"/>
  <circle cx="1280" cy="120" r="230" fill="none" stroke="#fff" stroke-opacity=".06" stroke-width="2"/>
  <path d="M790 505c250-132 530-104 810-46v101H790Z" fill="#fff" opacity=".035"/>

  <g transform="translate(970 140)" filter="url(#shadow)">
    <rect x="0" y="0" width="380" height="228" rx="24" fill="#f8f3e8"/>
    <rect x="20" y="20" width="340" height="178" rx="15" fill="#08284f"/>
    <rect x="42" y="45" width="112" height="9" rx="4.5" fill="#e4c982"/>
    <rect x="42" y="70" width="245" height="7" rx="3.5" fill="#fff" opacity=".24"/>
    <rect x="42" y="88" width="208" height="7" rx="3.5" fill="#fff" opacity=".16"/>
    <g transform="translate(42 120)">
      <rect width="72" height="46" rx="10" fill="#caa65a" opacity=".9"/><rect x="86" width="72" height="46" rx="10" fill="#2e7991"/><rect x="172" width="72" height="46" rx="10" fill="#a84b2b" opacity=".82"/>
      <path d="m18 25 9 9 18-21" fill="none" stroke="#fff" stroke-width="5" stroke-linecap="round" stroke-linejoin="round"/>
      <path d="m104 25 9 9 18-21" fill="none" stroke="#fff" stroke-width="5" stroke-linecap="round" stroke-linejoin="round"/>
      <circle cx="208" cy="23" r="11" fill="none" stroke="#fff" stroke-width="4"/><path d="M208 14v10l7 4" fill="none" stroke="#fff" stroke-width="4" stroke-linecap="round"/>
    </g>
    <path d="M-48 245h476l-45 42H-3Z" fill="url(#gold)"/>
  </g>

  <g transform="translate(815 84) rotate(-6)" filter="url(#shadow)">
    <rect width="170" height="250" rx="24" fill="#fffdf9"/>
    <rect x="24" y="28" width="80" height="9" rx="4.5" fill="#0c2748"/>
    <g transform="translate(24 62)" fill="none" stroke="#0c2748" stroke-width="4" stroke-linecap="round" stroke-linejoin="round">
      <path d="m0 7 7 7 14-16" stroke="#caa65a"/><path d="M34 7h86" stroke-opacity=".22"/>
      <path d="m0 50 7 7 14-16" stroke="#caa65a"/><path d="M34 50h76" stroke-opacity=".22"/>
      <path d="m0 93 7 7 14-16" stroke="#caa65a"/><path d="M34 93h92" stroke-opacity=".22"/>
      <path d="m0 136 7 7 14-16" stroke="#caa65a"/><path d="M34 136h68" stroke-opacity=".22"/>
    </g>
    <rect x="24" y="213" width="122" height="12" rx="6" fill="#08284f" opacity=".1"/>
  </g>

  <g transform="translate(1380 120)" filter="url(#shadow)">
    <circle r="68" fill="#fffdf9"/>
    <circle r="50" fill="#f3ecdd"/>
    <circle r="7" fill="#a84b2b"/>
    <path d="M0 0v-28M0 0l22 14" stroke="#08284f" stroke-width="7" stroke-linecap="round"/>
  </g>

  <g transform="translate(1375 350)" filter="url(#shadow)" fill="none" stroke="#f8f3e8" stroke-width="13" stroke-linecap="round">
    <path d="M-55 8v-16a55 55 0 0 1 110 0V8"/>
    <rect x="-73" y="4" width="29" height="62" rx="14" fill="#caa65a" stroke="none"/>
    <rect x="44" y="4" width="29" height="62" rx="14" fill="#caa65a" stroke="none"/>
  </g>
</svg>